<mxfile host="app.diagrams.net" agent="Mozilla/5.0 (Windows NT 10.0; Win64; x64) AppleWebKit/537.36 (KHTML, like Gecko) Chrome/139.0.0.0 Safari/537.36 Edg/139.0.0.0" version="26.2.12">
  <diagram name="第 1 页" id="xkRhAheFYaKFnBhGg02L">
    <mxGraphModel dx="1623" dy="970" grid="0" gridSize="10" guides="1" tooltips="1" connect="1" arrows="1" fold="1" page="1" pageScale="1" pageWidth="2339" pageHeight="3300" math="0" shadow="0">
      <root>
        <mxCell id="0" />
        <mxCell id="1" parent="0" />
        <mxCell id="jJTAVrFgWwlrYvnkQEcj-11" value="&lt;b&gt;GDE&lt;/b&gt;" style="rounded=1;whiteSpace=wrap;html=1;verticalAlign=bottom;dashed=1;dashPattern=8 8;arcSize=3;fontSize=16;" vertex="1" parent="1">
          <mxGeometry x="679" y="310" width="1202" height="714" as="geometry" />
        </mxCell>
        <mxCell id="jJTAVrFgWwlrYvnkQEcj-6" value="&lt;b&gt;第三方系统&lt;/b&gt;" style="rounded=1;whiteSpace=wrap;html=1;verticalAlign=bottom;dashed=1;dashPattern=8 8;fontSize=16;" vertex="1" parent="1">
          <mxGeometry x="1304" y="132" width="577" height="116" as="geometry" />
        </mxCell>
        <mxCell id="jJTAVrFgWwlrYvnkQEcj-5" value="&lt;div&gt;MCP Client&lt;/div&gt;" style="rounded=0;whiteSpace=wrap;html=1;fillColor=#d5e8d4;strokeColor=#82b366;" vertex="1" parent="1">
          <mxGeometry x="1708" y="155" width="145" height="47" as="geometry" />
        </mxCell>
        <mxCell id="jJTAVrFgWwlrYvnkQEcj-7" value="&lt;div&gt;MCP Server&lt;/div&gt;" style="rounded=0;whiteSpace=wrap;html=1;fillColor=#d5e8d4;strokeColor=#82b366;" vertex="1" parent="1">
          <mxGeometry x="1530" y="155" width="140" height="47" as="geometry" />
        </mxCell>
        <mxCell id="jJTAVrFgWwlrYvnkQEcj-8" value="遗留系统&lt;div&gt;RestAPI&lt;/div&gt;" style="rounded=0;whiteSpace=wrap;html=1;fillColor=#d5e8d4;strokeColor=#82b366;" vertex="1" parent="1">
          <mxGeometry x="1338" y="155" width="145" height="47" as="geometry" />
        </mxCell>
        <mxCell id="jJTAVrFgWwlrYvnkQEcj-2" value="&lt;b&gt;第三方系统集成&lt;/b&gt;" style="rounded=1;whiteSpace=wrap;html=1;verticalAlign=bottom;fillColor=#f5f5f5;fontColor=#333333;strokeColor=#666666;fontSize=14;" vertex="1" parent="1">
          <mxGeometry x="724" y="336" width="1131" height="173" as="geometry" />
        </mxCell>
        <mxCell id="jJTAVrFgWwlrYvnkQEcj-3" value="API Fabric" style="rounded=0;whiteSpace=wrap;html=1;fillColor=#dae8fc;strokeColor=#6c8ebf;verticalAlign=bottom;fontStyle=1" vertex="1" parent="1">
          <mxGeometry x="758" y="363" width="390" height="115" as="geometry" />
        </mxCell>
        <mxCell id="jJTAVrFgWwlrYvnkQEcj-4" value="MCP Gateway" style="rounded=0;whiteSpace=wrap;html=1;verticalAlign=bottom;fontStyle=1;fillColor=#dae8fc;strokeColor=#6c8ebf;" vertex="1" parent="1">
          <mxGeometry x="1226" y="364" width="588" height="113" as="geometry" />
        </mxCell>
        <mxCell id="jJTAVrFgWwlrYvnkQEcj-12" value="&lt;div&gt;MCP Inbound&lt;/div&gt;" style="rounded=0;whiteSpace=wrap;html=1;fillColor=#dae8fc;strokeColor=#6c8ebf;" vertex="1" parent="1">
          <mxGeometry x="1616" y="394" width="145" height="47" as="geometry" />
        </mxCell>
        <mxCell id="jJTAVrFgWwlrYvnkQEcj-14" value="API to MCP" style="rounded=0;whiteSpace=wrap;html=1;fillColor=#dae8fc;strokeColor=#6c8ebf;" vertex="1" parent="1">
          <mxGeometry x="1257" y="394" width="145" height="47" as="geometry" />
        </mxCell>
        <mxCell id="jJTAVrFgWwlrYvnkQEcj-69" style="edgeStyle=orthogonalEdgeStyle;rounded=0;orthogonalLoop=1;jettySize=auto;html=1;exitX=0.25;exitY=1;exitDx=0;exitDy=0;entryX=0.25;entryY=0;entryDx=0;entryDy=0;fillColor=#ffe6cc;strokeColor=#d79b00;strokeWidth=2;jumpStyle=arc;" edge="1" parent="1" source="jJTAVrFgWwlrYvnkQEcj-15" target="jJTAVrFgWwlrYvnkQEcj-17">
          <mxGeometry relative="1" as="geometry">
            <Array as="points">
              <mxPoint x="1465" y="535" />
              <mxPoint x="785" y="535" />
            </Array>
          </mxGeometry>
        </mxCell>
        <mxCell id="jJTAVrFgWwlrYvnkQEcj-15" value="MCP &lt;span style=&quot;background-color: transparent; color: light-dark(rgb(0, 0, 0), rgb(255, 255, 255));&quot;&gt;Outbound&lt;/span&gt;&lt;div&gt;&lt;span style=&quot;background-color: transparent; color: light-dark(rgb(0, 0, 0), rgb(255, 255, 255));&quot;&gt;（实例部署）&lt;/span&gt;&lt;/div&gt;" style="rounded=0;whiteSpace=wrap;html=1;fillColor=#dae8fc;strokeColor=#6c8ebf;" vertex="1" parent="1">
          <mxGeometry x="1429" y="394" width="145" height="47" as="geometry" />
        </mxCell>
        <mxCell id="jJTAVrFgWwlrYvnkQEcj-13" style="edgeStyle=orthogonalEdgeStyle;rounded=0;orthogonalLoop=1;jettySize=auto;html=1;exitX=0.5;exitY=0;exitDx=0;exitDy=0;entryX=0.5;entryY=1;entryDx=0;entryDy=0;fillColor=#d5e8d4;strokeColor=#82b366;strokeWidth=2;" edge="1" parent="1" source="jJTAVrFgWwlrYvnkQEcj-15" target="jJTAVrFgWwlrYvnkQEcj-7">
          <mxGeometry relative="1" as="geometry" />
        </mxCell>
        <mxCell id="jJTAVrFgWwlrYvnkQEcj-18" value="&lt;font style=&quot;font-size: 12px;&quot;&gt;内部工具发布为MCP Server&lt;/font&gt;" style="edgeStyle=orthogonalEdgeStyle;rounded=0;orthogonalLoop=1;jettySize=auto;html=1;exitX=0.5;exitY=0;exitDx=0;exitDy=0;fillColor=#ffe6cc;strokeColor=#d79b00;strokeWidth=2;entryX=0.25;entryY=1;entryDx=0;entryDy=0;" edge="1" parent="1" source="jJTAVrFgWwlrYvnkQEcj-17" target="jJTAVrFgWwlrYvnkQEcj-12">
          <mxGeometry x="-0.2692" relative="1" as="geometry">
            <Array as="points">
              <mxPoint x="841" y="563" />
              <mxPoint x="1652" y="563" />
            </Array>
            <mxPoint as="offset" />
          </mxGeometry>
        </mxCell>
        <mxCell id="jJTAVrFgWwlrYvnkQEcj-17" value="&lt;b&gt;工具注册中心&lt;/b&gt;" style="rounded=1;whiteSpace=wrap;html=1;verticalAlign=bottom;fillColor=#f5f5f5;fontColor=#333333;strokeColor=#666666;" vertex="1" parent="1">
          <mxGeometry x="730" y="583" width="221" height="109" as="geometry" />
        </mxCell>
        <mxCell id="jJTAVrFgWwlrYvnkQEcj-19" value="&lt;b&gt;ServiceA&lt;/b&gt;" style="rounded=1;whiteSpace=wrap;html=1;verticalAlign=bottom;fillColor=#f5f5f5;fontColor=#333333;strokeColor=#666666;arcSize=11;fontSize=14;" vertex="1" parent="1">
          <mxGeometry x="1108" y="773" width="363" height="188" as="geometry" />
        </mxCell>
        <mxCell id="jJTAVrFgWwlrYvnkQEcj-20" value="&lt;b&gt;ADC&lt;/b&gt;" style="rounded=1;whiteSpace=wrap;html=1;verticalAlign=bottom;fillColor=#f5f5f5;fontColor=#333333;strokeColor=#666666;arcSize=10;fontSize=14;" vertex="1" parent="1">
          <mxGeometry x="730" y="772" width="355" height="190" as="geometry" />
        </mxCell>
        <mxCell id="jJTAVrFgWwlrYvnkQEcj-21" value="&lt;b&gt;ServiceB&lt;/b&gt;" style="rounded=1;whiteSpace=wrap;html=1;verticalAlign=bottom;fillColor=#f5f5f5;fontColor=#333333;strokeColor=#666666;arcSize=8;fontSize=14;" vertex="1" parent="1">
          <mxGeometry x="1496" y="773" width="363" height="189" as="geometry" />
        </mxCell>
        <mxCell id="jJTAVrFgWwlrYvnkQEcj-22" value="Agent Studio" style="rounded=0;whiteSpace=wrap;html=1;fillColor=#dae8fc;strokeColor=#6c8ebf;" vertex="1" parent="1">
          <mxGeometry x="751" y="829" width="305" height="47" as="geometry" />
        </mxCell>
        <mxCell id="jJTAVrFgWwlrYvnkQEcj-35" value="&lt;font style=&quot;font-size: 12px;&quot;&gt;注册/消费&lt;/font&gt;&lt;div&gt;&lt;font style=&quot;font-size: 12px;&quot;&gt;工具定义&lt;/font&gt;&lt;/div&gt;" style="edgeStyle=orthogonalEdgeStyle;rounded=0;orthogonalLoop=1;jettySize=auto;html=1;exitX=0;exitY=0.5;exitDx=0;exitDy=0;entryX=1;entryY=0.5;entryDx=0;entryDy=0;fillColor=#ffe6cc;strokeColor=#d79b00;strokeWidth=2;" edge="1" parent="1" source="jJTAVrFgWwlrYvnkQEcj-24" target="jJTAVrFgWwlrYvnkQEcj-26">
          <mxGeometry x="0.001" relative="1" as="geometry">
            <Array as="points">
              <mxPoint x="1097" y="915" />
              <mxPoint x="1097" y="635" />
            </Array>
            <mxPoint as="offset" />
          </mxGeometry>
        </mxCell>
        <mxCell id="jJTAVrFgWwlrYvnkQEcj-55" value="&lt;font style=&quot;font-size: 12px;&quot;&gt;内部Agent工具调用&lt;/font&gt;" style="edgeStyle=orthogonalEdgeStyle;rounded=0;orthogonalLoop=1;jettySize=auto;html=1;exitX=0.5;exitY=1;exitDx=0;exitDy=0;entryX=0.25;entryY=1;entryDx=0;entryDy=0;fillColor=#ffe6cc;strokeColor=#d79b00;strokeWidth=2;startArrow=classic;startFill=1;" edge="1" parent="1" source="jJTAVrFgWwlrYvnkQEcj-23" target="jJTAVrFgWwlrYvnkQEcj-24">
          <mxGeometry relative="1" as="geometry">
            <Array as="points">
              <mxPoint x="903" y="991" />
              <mxPoint x="1205" y="991" />
            </Array>
          </mxGeometry>
        </mxCell>
        <mxCell id="jJTAVrFgWwlrYvnkQEcj-23" value="工具SDK" style="rounded=0;whiteSpace=wrap;html=1;verticalAlign=middle;fillColor=#dae8fc;strokeColor=#6c8ebf;" vertex="1" parent="1">
          <mxGeometry x="748" y="892" width="309" height="41" as="geometry" />
        </mxCell>
        <mxCell id="jJTAVrFgWwlrYvnkQEcj-24" value="工具SDK" style="rounded=0;whiteSpace=wrap;html=1;fillColor=#dae8fc;strokeColor=#6c8ebf;" vertex="1" parent="1">
          <mxGeometry x="1128" y="893" width="309" height="39" as="geometry" />
        </mxCell>
        <mxCell id="jJTAVrFgWwlrYvnkQEcj-56" value="&lt;font style=&quot;font-size: 12px;&quot;&gt;内部Agent工具调用&lt;/font&gt;" style="edgeStyle=orthogonalEdgeStyle;rounded=0;orthogonalLoop=1;jettySize=auto;html=1;exitX=0.5;exitY=1;exitDx=0;exitDy=0;entryX=0.75;entryY=1;entryDx=0;entryDy=0;fillColor=#ffe6cc;strokeColor=#d79b00;strokeWidth=2;endArrow=classic;endFill=1;startArrow=classic;startFill=1;" edge="1" parent="1" source="jJTAVrFgWwlrYvnkQEcj-25" target="jJTAVrFgWwlrYvnkQEcj-24">
          <mxGeometry relative="1" as="geometry">
            <Array as="points">
              <mxPoint x="1678" y="991" />
              <mxPoint x="1360" y="991" />
            </Array>
          </mxGeometry>
        </mxCell>
        <mxCell id="jJTAVrFgWwlrYvnkQEcj-25" value="工具SDK" style="rounded=0;whiteSpace=wrap;html=1;fillColor=#dae8fc;strokeColor=#6c8ebf;" vertex="1" parent="1">
          <mxGeometry x="1523" y="893" width="309" height="39" as="geometry" />
        </mxCell>
        <mxCell id="jJTAVrFgWwlrYvnkQEcj-26" value="工具目录" style="rounded=0;whiteSpace=wrap;html=1;fillColor=#dae8fc;strokeColor=#6c8ebf;" vertex="1" parent="1">
          <mxGeometry x="762" y="611" width="145" height="47" as="geometry" />
        </mxCell>
        <mxCell id="jJTAVrFgWwlrYvnkQEcj-31" value="Agent工具开发" style="rounded=0;whiteSpace=wrap;html=1;fillColor=#dae8fc;strokeColor=#6c8ebf;" vertex="1" parent="1">
          <mxGeometry x="1129" y="829" width="145" height="47" as="geometry" />
        </mxCell>
        <mxCell id="jJTAVrFgWwlrYvnkQEcj-32" value="Agent开发" style="rounded=0;whiteSpace=wrap;html=1;fillColor=#dae8fc;strokeColor=#6c8ebf;" vertex="1" parent="1">
          <mxGeometry x="1292" y="829" width="145" height="47" as="geometry" />
        </mxCell>
        <mxCell id="jJTAVrFgWwlrYvnkQEcj-33" value="Agent工具开发" style="rounded=0;whiteSpace=wrap;html=1;fillColor=#dae8fc;strokeColor=#6c8ebf;" vertex="1" parent="1">
          <mxGeometry x="1523" y="829" width="145" height="47" as="geometry" />
        </mxCell>
        <mxCell id="jJTAVrFgWwlrYvnkQEcj-34" value="Agent开发" style="rounded=0;whiteSpace=wrap;html=1;fillColor=#dae8fc;strokeColor=#6c8ebf;" vertex="1" parent="1">
          <mxGeometry x="1687" y="829" width="145" height="47" as="geometry" />
        </mxCell>
        <mxCell id="jJTAVrFgWwlrYvnkQEcj-43" style="edgeStyle=orthogonalEdgeStyle;rounded=0;orthogonalLoop=1;jettySize=auto;html=1;exitX=0.5;exitY=1;exitDx=0;exitDy=0;entryX=0.5;entryY=0;entryDx=0;entryDy=0;fillColor=#d5e8d4;strokeColor=#82b366;strokeWidth=2;" edge="1" parent="1" source="jJTAVrFgWwlrYvnkQEcj-5" target="jJTAVrFgWwlrYvnkQEcj-12">
          <mxGeometry relative="1" as="geometry" />
        </mxCell>
        <mxCell id="jJTAVrFgWwlrYvnkQEcj-44" style="edgeStyle=orthogonalEdgeStyle;rounded=0;orthogonalLoop=1;jettySize=auto;html=1;exitX=0.5;exitY=0;exitDx=0;exitDy=0;entryX=0.5;entryY=1;entryDx=0;entryDy=0;strokeWidth=2;fillColor=#f5f5f5;strokeColor=#666666;" edge="1" parent="1" source="jJTAVrFgWwlrYvnkQEcj-14" target="jJTAVrFgWwlrYvnkQEcj-8">
          <mxGeometry relative="1" as="geometry" />
        </mxCell>
        <mxCell id="jJTAVrFgWwlrYvnkQEcj-48" value="&lt;font style=&quot;font-size: 12px;&quot;&gt;CSE协议&lt;/font&gt;" style="endArrow=classic;html=1;rounded=0;fillColor=#ffe6cc;strokeColor=#d79b00;strokeWidth=2;" edge="1" parent="1">
          <mxGeometry width="50" height="50" relative="1" as="geometry">
            <mxPoint x="1019" y="196" as="sourcePoint" />
            <mxPoint x="1166" y="196" as="targetPoint" />
          </mxGeometry>
        </mxCell>
        <mxCell id="jJTAVrFgWwlrYvnkQEcj-49" value="&lt;font style=&quot;font-size: 12px;&quot;&gt;MCP标准协议&lt;/font&gt;" style="endArrow=classic;html=1;rounded=0;fillColor=#d5e8d4;strokeColor=#82b366;strokeWidth=2;" edge="1" parent="1">
          <mxGeometry width="50" height="50" relative="1" as="geometry">
            <mxPoint x="828.5" y="195" as="sourcePoint" />
            <mxPoint x="978.5" y="195" as="targetPoint" />
          </mxGeometry>
        </mxCell>
        <mxCell id="jJTAVrFgWwlrYvnkQEcj-50" value="&lt;font style=&quot;font-size: 12px;&quot;&gt;Rest标准协议&lt;/font&gt;" style="endArrow=classic;html=1;rounded=0;fillColor=#f5f5f5;strokeColor=#666666;strokeWidth=2;" edge="1" parent="1">
          <mxGeometry width="50" height="50" relative="1" as="geometry">
            <mxPoint x="824" y="244" as="sourcePoint" />
            <mxPoint x="974" y="244" as="targetPoint" />
          </mxGeometry>
        </mxCell>
        <mxCell id="jJTAVrFgWwlrYvnkQEcj-63" style="edgeStyle=orthogonalEdgeStyle;rounded=0;orthogonalLoop=1;jettySize=auto;html=1;exitX=0.5;exitY=0;exitDx=0;exitDy=0;fillColor=#ffe6cc;strokeColor=#d79b00;strokeWidth=2;jumpStyle=arc;" edge="1" parent="1" source="jJTAVrFgWwlrYvnkQEcj-62" target="jJTAVrFgWwlrYvnkQEcj-15">
          <mxGeometry relative="1" as="geometry" />
        </mxCell>
        <mxCell id="jJTAVrFgWwlrYvnkQEcj-65" style="edgeStyle=orthogonalEdgeStyle;rounded=0;orthogonalLoop=1;jettySize=auto;html=1;exitX=0.5;exitY=0;exitDx=0;exitDy=0;entryX=0.75;entryY=1;entryDx=0;entryDy=0;fillColor=#ffe6cc;strokeColor=#d79b00;strokeWidth=2;jumpStyle=arc;" edge="1" parent="1" source="jJTAVrFgWwlrYvnkQEcj-62" target="jJTAVrFgWwlrYvnkQEcj-14">
          <mxGeometry relative="1" as="geometry" />
        </mxCell>
        <mxCell id="jJTAVrFgWwlrYvnkQEcj-62" value="CSE" style="rounded=0;whiteSpace=wrap;html=1;fillColor=#ffe6cc;strokeColor=#d79b00;" vertex="1" parent="1">
          <mxGeometry x="751" y="783" width="1082" height="31" as="geometry" />
        </mxCell>
        <mxCell id="jJTAVrFgWwlrYvnkQEcj-64" value="&lt;font style=&quot;font-size: 12px;&quot;&gt;转换为内部工具调用&lt;/font&gt;" style="edgeStyle=orthogonalEdgeStyle;rounded=0;orthogonalLoop=1;jettySize=auto;html=1;exitX=0.75;exitY=1;exitDx=0;exitDy=0;entryX=0.75;entryY=0;entryDx=0;entryDy=0;fillColor=#ffe6cc;strokeColor=#d79b00;strokeWidth=2;" edge="1" parent="1" source="jJTAVrFgWwlrYvnkQEcj-12" target="jJTAVrFgWwlrYvnkQEcj-62">
          <mxGeometry relative="1" as="geometry" />
        </mxCell>
        <mxCell id="jJTAVrFgWwlrYvnkQEcj-37" value="&lt;font style=&quot;font-size: 12px;&quot;&gt;注册/消费&lt;/font&gt;&lt;div&gt;&lt;font style=&quot;font-size: 12px;&quot;&gt;工具定义&lt;/font&gt;&lt;/div&gt;" style="edgeStyle=orthogonalEdgeStyle;rounded=0;orthogonalLoop=1;jettySize=auto;html=1;exitX=0;exitY=0.5;exitDx=0;exitDy=0;entryX=0;entryY=0.5;entryDx=0;entryDy=0;fillColor=#ffe6cc;strokeColor=#d79b00;strokeWidth=2;" edge="1" parent="1" source="jJTAVrFgWwlrYvnkQEcj-22" target="jJTAVrFgWwlrYvnkQEcj-26">
          <mxGeometry relative="1" as="geometry">
            <Array as="points">
              <mxPoint x="717" y="859" />
              <mxPoint x="717" y="635" />
            </Array>
          </mxGeometry>
        </mxCell>
        <mxCell id="jJTAVrFgWwlrYvnkQEcj-66" value="Inbound&lt;div&gt;（SOAP/Rest/...）&lt;/div&gt;" style="rounded=0;whiteSpace=wrap;html=1;fillColor=#dae8fc;strokeColor=#6c8ebf;" vertex="1" parent="1">
          <mxGeometry x="784" y="398" width="145" height="47" as="geometry" />
        </mxCell>
        <mxCell id="jJTAVrFgWwlrYvnkQEcj-67" value="Outbound&lt;div&gt;（SOAP/Rest/...）&lt;/div&gt;" style="rounded=0;whiteSpace=wrap;html=1;fillColor=#dae8fc;strokeColor=#6c8ebf;" vertex="1" parent="1">
          <mxGeometry x="965" y="398" width="145" height="47" as="geometry" />
        </mxCell>
        <mxCell id="jJTAVrFgWwlrYvnkQEcj-68" value="&lt;span style=&quot;font-size: 12px;&quot;&gt;注册至内部工具目录&lt;/span&gt;" style="edgeStyle=orthogonalEdgeStyle;rounded=0;orthogonalLoop=1;jettySize=auto;html=1;exitX=0.25;exitY=1;exitDx=0;exitDy=0;entryX=0.25;entryY=0;entryDx=0;entryDy=0;fillColor=#ffe6cc;strokeColor=#d79b00;strokeWidth=2;" edge="1" parent="1" source="jJTAVrFgWwlrYvnkQEcj-14" target="jJTAVrFgWwlrYvnkQEcj-17">
          <mxGeometry relative="1" as="geometry">
            <Array as="points">
              <mxPoint x="1293" y="535" />
              <mxPoint x="785" y="535" />
            </Array>
          </mxGeometry>
        </mxCell>
      </root>
    </mxGraphModel>
  </diagram>
</mxfile>
